<!-- icon666.com - MILLIONS vector ICONS FREE --><svg id="Capa_1" enable-background="new 0 0 390.041 390.041" viewBox="0 0 390.041 390.041" xmlns="http://www.w3.org/2000/svg"><path id="path1308" d="m81.578.07c-38.9-1.865-75.532 33.964-67.083 76.208l19.458 97.5c.5-.018 1-.018 1.5 0h109.917c11.736-1.054 22.104 7.606 23.158 19.342s-7.606 22.104-19.342 23.158c-1.269.114-2.546.114-3.816 0h-109.917c-.501-.025-1.002-.068-1.5-.128l-19.458 97.625c-10.398 51.993 47.524 94.25 93.875 68.5l236.208-131.333c42.926-23.846 42.926-87.987 0-111.833l-236.209-131.331c-8.69-4.828-17.814-7.278-26.791-7.708z"></path></svg>